<?xml version="1.0" encoding="UTF-8"?>
<svg viewBox="0 0 764 245" width="764" height="245" xmlns="http://www.w3.org/2000/svg">
  <g fill="none" fill-rule="evenodd">
    <path d="M157.09 209.91c12.955 0 18.683-3.137 23.592-13.092C182.59 205.41 186.409 208 196.5 208v-6.955c-8.182.137-10.636-3.136-10.636-14.454V151c0-21.955-6.955-29.182-28.773-29.182-15.955 0-22.364 4.637-26.591 18.955l7.227 1.772c3.137-10.5 7.637-13.636 19.364-13.636 16.227 0 21.273 5.182 21.273 22.091v8.455H157.09c-21.682 0-28.636 6-28.636 25.772 0 18.682 6.954 24.682 28.636 24.682Zm0-6.955c-16.226 0-21.135-4.228-21.135-17.728 0-14.59 4.909-18.954 21.136-18.954h21.273v12.136c0 18.682-5.046 24.546-21.273 24.546ZM221.183 208l21.273-35.182L263.864 208h8.454l-25.5-42.136 25.5-42.137h-8.454l-21.41 35.182-21.272-35.182h-8.591l25.636 42.137L212.591 208h8.59Zm103.09 1.91c22.5 0 29.728-10.774 29.728-44.046 0-33.273-7.227-44.046-29.727-44.046s-29.591 10.773-29.591 44.046c0 33.272 7.09 44.045 29.59 44.045Zm0-6.955c-16.772 0-22.09-8.728-22.09-37.091 0-28.364 5.318-37.091 22.09-37.091 16.773 0 22.228 8.727 22.228 37.09 0 28.364-5.455 37.092-22.227 37.092Zm60.546 29.863v-34.5c3.682 8.727 11.727 11.591 22.227 11.591 22.5 0 29.728-10.773 29.728-44.182 0-33.272-7.228-43.909-29.728-43.909-10.227 0-18.272 2.046-22.227 8.455v-6.546h-7.5v109.091h7.5Zm22.227-29.863c-13.363 0-22.227-6-22.227-22.773v-39.818c0-8.864 10.227-11.591 22.227-11.591 16.773 0 22.228 8.727 22.228 36.954 0 28.364-5.455 37.228-22.228 37.228ZM468.41 208v-56.182c0-18.545 4.773-23.045 20.864-23.045 15.954 0 21.136 8.318 21.136 35.318V208h7.5v-43.91c0-32.045-6.954-42.272-28.636-42.272-10.228 0-17.864 2.455-20.864 10.227V98.91h-7.5V208h7.5Zm101.318 1.91c22.5 0 29.728-10.774 29.728-44.046 0-33.273-7.228-44.046-29.728-44.046s-29.59 10.773-29.59 44.046c0 33.272 7.09 44.045 29.59 44.045Zm0-6.955c-16.772 0-22.09-8.728-22.09-37.091 0-28.364 5.318-37.091 22.09-37.091 16.773 0 22.228 8.727 22.228 37.09 0 28.364-5.455 37.092-22.228 37.092Zm61.5 5.045v-56.182c0-18.818 5.591-23.045 24.137-23.045 13.772 0 18.136 5.863 18.136 24.545V208h7.5v-54.682c0-24-6.136-31.5-25.636-31.5-13.228 0-19.228 3-24.137 10.091v-8.182h-7.5V208h7.5Zm102.546 1.91c13.909 0 20.727-3.41 28.363-14.046l-6-4.091c-6.681 8.59-11.863 11.182-22.363 11.182-18.137 0-24.137-8.728-24.41-36.682h54.273c0-33.546-7.227-44.455-29.863-44.455-24.273 0-31.91 10.773-31.91 44.046 0 33.272 7.637 44.045 31.91 44.045Zm22.09-50.455H709.5c.682-23.319 6.955-30.682 24.273-30.682 15.545 0 20.863 7.363 22.09 30.682Z" fill="#000" fill-rule="nonzero"/>
    <path d="M139.791 3.5c-7.052 1.164-11.908 2.19-14.566 3.077-7.587 2.53-12.196 5.953-15.414 8.235-4.983 3.534-8.586 8.8-11.227 13.486-3.3 5.853-5.02 11.347-5.137 17.714-.68 52.755-1.203 125.916-1.203 151.243 0 1.848-.113 3.67-.333 5.458-2.69 21.86-21.324 38.787-43.912 38.787-24.435 0-44.244-19.81-44.244-44.245v-61.562l41.965-21.24.585 75.634" stroke="#0A0909" stroke-width="7"/>
    <path d="m76.021 96.23h34.416m-34.416 17.979h34.416m-34.416 18.109h34.416" stroke="#0A0909" stroke-width="5"/>
  </g>
</svg>
